<mxfile host="app.diagrams.net" modified="2023-03-13T17:44:05.462Z" agent="5.0 (Windows NT 10.0; Win64; x64) AppleWebKit/537.36 (KHTML, like Gecko) Chrome/110.0.0.0 Safari/537.36" etag="olEVM_DYrudXVtbMtVHq" version="21.0.2" type="github">
  <diagram id="C5RBs43oDa-KdzZeNtuy" name="Page-1">
    <mxGraphModel dx="1477" dy="709" grid="1" gridSize="10" guides="1" tooltips="1" connect="1" arrows="1" fold="1" page="1" pageScale="1" pageWidth="827" pageHeight="1169" math="0" shadow="0">
      <root>
        <mxCell id="WIyWlLk6GJQsqaUBKTNV-0" />
        <mxCell id="WIyWlLk6GJQsqaUBKTNV-1" parent="WIyWlLk6GJQsqaUBKTNV-0" />
        <mxCell id="WIyWlLk6GJQsqaUBKTNV-2" value="" style="rounded=0;html=1;jettySize=auto;orthogonalLoop=1;fontSize=11;endArrow=block;endFill=0;endSize=8;strokeWidth=1;shadow=0;labelBackgroundColor=none;edgeStyle=orthogonalEdgeStyle;" parent="WIyWlLk6GJQsqaUBKTNV-1" edge="1">
          <mxGeometry relative="1" as="geometry">
            <mxPoint x="376.71000000000004" y="130" as="sourcePoint" />
            <mxPoint x="376.71000000000004" y="170" as="targetPoint" />
          </mxGeometry>
        </mxCell>
        <mxCell id="WIyWlLk6GJQsqaUBKTNV-4" value="Yes" style="rounded=0;html=1;jettySize=auto;orthogonalLoop=1;fontSize=11;endArrow=block;endFill=0;endSize=8;strokeWidth=1;shadow=0;labelBackgroundColor=none;edgeStyle=orthogonalEdgeStyle;entryX=0.546;entryY=-0.034;entryDx=0;entryDy=0;entryPerimeter=0;" parent="WIyWlLk6GJQsqaUBKTNV-1" target="I91ViXZcUyba7LbL-aHq-26" edge="1">
          <mxGeometry y="20" relative="1" as="geometry">
            <mxPoint as="offset" />
            <mxPoint x="435.4599999999999" y="430.0000000000001" as="sourcePoint" />
            <mxPoint x="516.71" y="480" as="targetPoint" />
            <Array as="points">
              <mxPoint x="516.71" y="430" />
            </Array>
          </mxGeometry>
        </mxCell>
        <mxCell id="WIyWlLk6GJQsqaUBKTNV-8" value="No" style="rounded=0;html=1;jettySize=auto;orthogonalLoop=1;fontSize=11;endArrow=block;endFill=0;endSize=8;strokeWidth=1;shadow=0;labelBackgroundColor=none;edgeStyle=orthogonalEdgeStyle;exitX=0;exitY=0.5;exitDx=0;exitDy=0;entryX=0.5;entryY=0;entryDx=0;entryDy=0;" parent="WIyWlLk6GJQsqaUBKTNV-1" source="I91ViXZcUyba7LbL-aHq-22" target="I91ViXZcUyba7LbL-aHq-28" edge="1">
          <mxGeometry x="0.3333" y="20" relative="1" as="geometry">
            <mxPoint as="offset" />
            <mxPoint x="236.71" y="430" as="sourcePoint" />
            <mxPoint x="237" y="480" as="targetPoint" />
          </mxGeometry>
        </mxCell>
        <mxCell id="I91ViXZcUyba7LbL-aHq-0" value="Bắt đầu" style="ellipse;whiteSpace=wrap;html=1;fontSize=16;" vertex="1" parent="WIyWlLk6GJQsqaUBKTNV-1">
          <mxGeometry x="316.71000000000004" y="80" width="120" height="50" as="geometry" />
        </mxCell>
        <mxCell id="I91ViXZcUyba7LbL-aHq-1" value="Nhập n" style="shape=parallelogram;perimeter=parallelogramPerimeter;whiteSpace=wrap;html=1;fixedSize=1;fontSize=16;" vertex="1" parent="WIyWlLk6GJQsqaUBKTNV-1">
          <mxGeometry x="316.71000000000004" y="170" width="120" height="40" as="geometry" />
        </mxCell>
        <mxCell id="I91ViXZcUyba7LbL-aHq-17" value="" style="rounded=0;html=1;jettySize=auto;orthogonalLoop=1;fontSize=11;endArrow=block;endFill=0;endSize=8;strokeWidth=1;shadow=0;labelBackgroundColor=none;edgeStyle=orthogonalEdgeStyle;" edge="1" parent="WIyWlLk6GJQsqaUBKTNV-1">
          <mxGeometry relative="1" as="geometry">
            <mxPoint x="376.09000000000003" y="210" as="sourcePoint" />
            <mxPoint x="376.09000000000003" y="250" as="targetPoint" />
          </mxGeometry>
        </mxCell>
        <mxCell id="I91ViXZcUyba7LbL-aHq-19" value="S= 0, i = 1" style="rounded=0;whiteSpace=wrap;html=1;fontSize=16;" vertex="1" parent="WIyWlLk6GJQsqaUBKTNV-1">
          <mxGeometry x="316.71000000000004" y="250" width="120" height="40" as="geometry" />
        </mxCell>
        <mxCell id="I91ViXZcUyba7LbL-aHq-20" value="i &amp;lt;= n" style="rhombus;whiteSpace=wrap;html=1;fontSize=16;" vertex="1" parent="WIyWlLk6GJQsqaUBKTNV-1">
          <mxGeometry x="336.71000000000004" y="330" width="80" height="40" as="geometry" />
        </mxCell>
        <mxCell id="I91ViXZcUyba7LbL-aHq-21" value="" style="rounded=0;html=1;jettySize=auto;orthogonalLoop=1;fontSize=11;endArrow=block;endFill=0;endSize=8;strokeWidth=1;shadow=0;labelBackgroundColor=none;edgeStyle=orthogonalEdgeStyle;" edge="1" parent="WIyWlLk6GJQsqaUBKTNV-1">
          <mxGeometry relative="1" as="geometry">
            <mxPoint x="376.09000000000003" y="290" as="sourcePoint" />
            <mxPoint x="376.09000000000003" y="330" as="targetPoint" />
          </mxGeometry>
        </mxCell>
        <mxCell id="I91ViXZcUyba7LbL-aHq-22" value="n % i ==0" style="rhombus;whiteSpace=wrap;html=1;fontSize=16;" vertex="1" parent="WIyWlLk6GJQsqaUBKTNV-1">
          <mxGeometry x="316.71000000000004" y="410" width="120" height="40" as="geometry" />
        </mxCell>
        <mxCell id="I91ViXZcUyba7LbL-aHq-25" value="" style="rounded=0;html=1;jettySize=auto;orthogonalLoop=1;fontSize=11;endArrow=block;endFill=0;endSize=8;strokeWidth=1;shadow=0;labelBackgroundColor=none;edgeStyle=orthogonalEdgeStyle;" edge="1" parent="WIyWlLk6GJQsqaUBKTNV-1">
          <mxGeometry relative="1" as="geometry">
            <mxPoint x="376.08000000000004" y="370" as="sourcePoint" />
            <mxPoint x="376.08000000000004" y="410" as="targetPoint" />
          </mxGeometry>
        </mxCell>
        <mxCell id="I91ViXZcUyba7LbL-aHq-26" value="S = S + i&lt;br&gt;i = i + 1" style="rounded=0;whiteSpace=wrap;html=1;fontSize=16;" vertex="1" parent="WIyWlLk6GJQsqaUBKTNV-1">
          <mxGeometry x="450.71000000000004" y="490" width="120" height="40" as="geometry" />
        </mxCell>
        <mxCell id="I91ViXZcUyba7LbL-aHq-27" value="" style="rounded=0;html=1;jettySize=auto;orthogonalLoop=1;fontSize=11;endArrow=block;endFill=0;endSize=8;strokeWidth=1;shadow=0;labelBackgroundColor=none;edgeStyle=orthogonalEdgeStyle;exitX=1;exitY=0.5;exitDx=0;exitDy=0;" edge="1" parent="WIyWlLk6GJQsqaUBKTNV-1" source="I91ViXZcUyba7LbL-aHq-26">
          <mxGeometry relative="1" as="geometry">
            <mxPoint x="470.71000000000004" y="380" as="sourcePoint" />
            <mxPoint x="376.71000000000004" y="310" as="targetPoint" />
            <Array as="points">
              <mxPoint x="590.71" y="510" />
              <mxPoint x="590.71" y="310" />
            </Array>
          </mxGeometry>
        </mxCell>
        <mxCell id="I91ViXZcUyba7LbL-aHq-28" value="S" style="shape=parallelogram;perimeter=parallelogramPerimeter;whiteSpace=wrap;html=1;fixedSize=1;fontSize=16;" vertex="1" parent="WIyWlLk6GJQsqaUBKTNV-1">
          <mxGeometry x="180" y="490" width="120" height="40" as="geometry" />
        </mxCell>
        <mxCell id="I91ViXZcUyba7LbL-aHq-29" value="" style="rounded=0;html=1;jettySize=auto;orthogonalLoop=1;fontSize=11;endArrow=block;endFill=0;endSize=8;strokeWidth=1;shadow=0;labelBackgroundColor=none;edgeStyle=orthogonalEdgeStyle;" edge="1" parent="WIyWlLk6GJQsqaUBKTNV-1">
          <mxGeometry relative="1" as="geometry">
            <mxPoint x="236" y="530" as="sourcePoint" />
            <mxPoint x="236" y="570" as="targetPoint" />
          </mxGeometry>
        </mxCell>
        <mxCell id="I91ViXZcUyba7LbL-aHq-30" value="Kết thúc" style="ellipse;whiteSpace=wrap;html=1;fontSize=16;" vertex="1" parent="WIyWlLk6GJQsqaUBKTNV-1">
          <mxGeometry x="180" y="570" width="120" height="40" as="geometry" />
        </mxCell>
        <mxCell id="I91ViXZcUyba7LbL-aHq-32" value="Bài4: Nhập số nguyên dương n.Tính tổng các ước của n." style="rounded=0;whiteSpace=wrap;html=1;fontSize=16;" vertex="1" parent="WIyWlLk6GJQsqaUBKTNV-1">
          <mxGeometry width="550" height="50" as="geometry" />
        </mxCell>
      </root>
    </mxGraphModel>
  </diagram>
</mxfile>
